<svg width="27" height="27" viewBox="0 0 27 27" fill="none" xmlns="http://www.w3.org/2000/svg">
<path fill-rule="evenodd" clip-rule="evenodd" d="M25.8858 13.5072C25.8858 12.5707 25.8018 11.6702 25.6457 10.8058H13.207V15.9145H20.3148C20.0087 17.5654 19.0782 18.9641 17.6794 19.9007V23.2144H21.9477C24.445 20.9152 25.8858 17.5294 25.8858 13.5072Z" fill="#4285F4"/>
<path fill-rule="evenodd" clip-rule="evenodd" d="M13.2071 26.4142C16.773 26.4142 19.7626 25.2315 21.9478 23.2144L17.6795 19.9007C16.4969 20.6931 14.984 21.1613 13.2071 21.1613C9.76726 21.1613 6.8557 18.8381 5.81715 15.7164H1.40479V19.1383C3.57795 23.4546 8.04434 26.4142 13.2071 26.4142Z" fill="#34A853"/>
<path fill-rule="evenodd" clip-rule="evenodd" d="M5.81711 15.7164C5.55297 14.924 5.40289 14.0775 5.40289 13.2071C5.40289 12.3366 5.55297 11.4901 5.81711 10.6977V7.27588H1.40475C0.510273 9.05883 0 11.0759 0 13.2071C0 15.3382 0.510273 17.3553 1.40475 19.1382L5.81711 15.7164Z" fill="#FBBC05"/>
<path fill-rule="evenodd" clip-rule="evenodd" d="M13.2071 5.25281C15.1461 5.25281 16.8871 5.91917 18.2558 7.22787L22.0438 3.43984C19.7566 1.3087 16.767 0 13.2071 0C8.04434 0 3.57795 2.95958 1.40479 7.27589L5.81714 10.6977C6.8557 7.57605 9.76726 5.25281 13.2071 5.25281Z" fill="#EA4335"/>
</svg>
